<svg width="841" height="168" viewBox="0 0 841 168" fill="none" xmlns="http://www.w3.org/2000/svg">
<g id="solbiler-logo">
<g id="sol-logo-text">
<path id="Vector" d="M28.14 161.99C19.73 158.54 13 153.44 7.97001 146.68C2.93001 139.92 0.28001 131.78 0.0100098 122.27H37.66C38.21 127.65 40.07 131.75 43.25 134.58C46.42 137.41 50.56 138.82 55.66 138.82C60.76 138.82 65.04 137.61 68.07 135.2C71.1 132.79 72.62 129.44 72.62 125.17C72.62 121.59 71.41 118.62 69 116.27C66.58 113.93 63.62 112 60.1 110.48C56.58 108.96 51.58 107.24 45.1 105.31C35.72 102.41 28.06 99.52 22.14 96.62C16.21 93.72 11.1 89.45 6.83001 83.79C2.55001 78.14 0.41001 70.76 0.41001 61.65C0.41001 48.13 5.30001 37.55 15.1 29.89C24.89 22.24 37.65 18.41 53.37 18.41C69.09 18.41 82.26 22.24 92.06 29.89C101.85 37.54 107.09 48.2 107.78 61.85H69.51C69.23 57.16 67.51 53.47 64.34 50.78C61.17 48.09 57.1 46.75 52.13 46.75C47.85 46.75 44.4 47.89 41.79 50.16C39.17 52.44 37.86 55.71 37.86 59.99C37.86 64.68 40.06 68.34 44.48 70.96C48.89 73.58 55.79 76.41 65.17 79.44C74.55 82.61 82.17 85.65 88.03 88.54C93.89 91.44 98.96 95.65 103.24 101.16C107.51 106.68 109.65 113.78 109.65 122.47C109.65 131.16 107.55 138.26 103.34 145.02C99.13 151.78 93.03 157.16 85.03 161.16C77.03 165.16 67.58 167.16 56.69 167.16C45.8 167.16 36.55 165.44 28.14 161.99Z" fill="white"/>
<path id="Vector_2" d="M153.4 160.13C144.36 155.3 137.26 148.41 132.09 139.44C126.92 130.48 124.33 119.99 124.33 107.99C124.33 95.99 126.95 85.68 132.19 76.65C137.43 67.62 144.6 60.69 153.71 55.86C162.81 51.03 173.02 48.62 184.33 48.62C195.64 48.62 205.85 51.03 214.95 55.86C224.05 60.69 231.22 67.62 236.47 76.65C241.71 85.69 244.33 96.13 244.33 107.99C244.33 119.85 241.67 130.3 236.37 139.33C231.06 148.37 223.82 155.3 214.65 160.12C205.48 164.95 195.23 167.36 183.93 167.36C172.63 167.36 162.45 164.95 153.41 160.12L153.4 160.13ZM201.19 129.3C205.95 124.34 208.33 117.23 208.33 107.99C208.33 98.75 206.02 91.65 201.4 86.68C196.78 81.72 191.09 79.23 184.33 79.23C177.57 79.23 171.71 81.68 167.16 86.57C162.61 91.47 160.33 98.61 160.33 107.98C160.33 117.35 162.57 124.32 167.05 129.29C171.53 134.25 177.15 136.74 183.91 136.74C190.67 136.74 196.43 134.26 201.19 129.29V129.3Z" fill="white"/>
<path id="Vector_3" d="M298.54 12.62V165.72H263.16V12.62H298.54Z" fill="white"/>
<path id="Vector_4" d="M373.84 53.58C380.05 50.27 387.15 48.62 395.15 48.62C404.67 48.62 413.28 51.03 421.01 55.86C428.73 60.69 434.84 67.58 439.32 76.55C443.8 85.52 446.04 95.93 446.04 107.79C446.04 119.65 443.8 130.1 439.32 139.13C434.84 148.17 428.73 155.13 421.01 160.03C413.28 164.93 404.67 167.37 395.15 167.37C387.01 167.37 379.91 165.75 373.84 162.51C367.77 159.27 363.01 154.96 359.57 149.58V165.72H324.19V12.62H359.57V66.62C362.88 61.24 367.64 56.9 373.84 53.59V53.58ZM402.7 86.99C397.8 81.96 391.77 79.44 384.6 79.44C377.43 79.44 371.6 81.99 366.7 87.09C361.8 92.19 359.36 99.16 359.36 107.99C359.36 116.82 361.81 123.78 366.7 128.89C371.59 133.99 377.56 136.55 384.6 136.55C391.64 136.55 397.63 133.96 402.6 128.79C407.56 123.62 410.05 116.62 410.05 107.79C410.05 98.96 407.6 92.03 402.71 87L402.7 86.99Z" fill="white"/>
<path id="Vector_5" d="M467.25 32.79C463.32 29.14 461.35 24.62 461.35 19.24C461.35 13.86 463.32 9.14 467.25 5.48C471.18 1.83 476.25 0 482.46 0C488.67 0 493.53 1.83 497.46 5.48C501.39 9.14 503.36 13.72 503.36 19.24C503.36 24.76 501.4 29.14 497.46 32.79C493.53 36.45 488.53 38.27 482.46 38.27C476.39 38.27 471.18 36.44 467.25 32.79ZM500.04 50.27V165.71H464.66V50.27H500.04Z" fill="white"/>
<path id="Vector_6" d="M561.07 12.62V165.72H525.69V12.62H561.07Z" fill="white"/>
<path id="Vector_7" d="M694.93 116.48H614.86C615.41 123.65 617.72 129.14 621.79 132.93C625.86 136.73 630.86 138.62 636.79 138.62C645.62 138.62 651.75 134.9 655.2 127.45H692.85C690.92 135.04 687.44 141.86 682.4 147.93C677.36 154 671.05 158.76 663.47 162.21C655.88 165.66 647.4 167.38 638.02 167.38C626.71 167.38 616.64 164.97 607.81 160.14C598.98 155.31 592.09 148.42 587.12 139.45C582.15 130.49 579.67 120 579.67 108C579.67 96 582.12 85.52 587.01 76.55C591.9 67.59 598.77 60.69 607.59 55.86C616.42 51.03 626.55 48.62 638 48.62C649.45 48.62 659.1 50.97 667.79 55.65C676.48 60.34 683.27 67.03 688.17 75.72C693.06 84.41 695.51 94.55 695.51 106.13C695.51 109.44 695.3 112.89 694.89 116.47L694.93 116.48ZM659.35 96.83C659.35 90.76 657.28 85.94 653.14 82.35C649 78.77 643.83 76.97 637.62 76.97C631.41 76.97 626.69 78.7 622.62 82.14C618.55 85.59 616.03 90.49 615.07 96.83H659.34H659.35Z" fill="white"/>
<path id="Vector_8" d="M765.06 54.51C771.27 50.86 778.16 49.03 785.75 49.03V86.48H776.03C767.2 86.48 760.58 88.38 756.17 92.17C751.75 95.97 749.55 102.62 749.55 112.13V165.71H714.17V50.27H749.55V69.51C753.69 63.17 758.86 58.17 765.07 54.51H765.06Z" fill="white"/>
</g>
<g id="sol-logo-dot">
<path id="Vector_9" d="M804.06 161.89C800.13 158.24 798.16 153.72 798.16 148.34C798.16 142.96 800.13 138.2 804.06 134.48C807.99 130.76 813.06 128.89 819.27 128.89C825.48 128.89 830.34 130.75 834.27 134.48C838.2 138.2 840.17 142.83 840.17 148.34C840.17 153.85 838.21 158.24 834.27 161.89C830.34 165.55 825.34 167.37 819.27 167.37C813.2 167.37 807.99 165.54 804.06 161.89Z" />
</g>
</g>
</svg>
